<?xml version="1.0" standalone="no"?>
<!DOCTYPE svg PUBLIC "-//W3C//DTD SVG 20010904//EN"
 "http://www.w3.org/TR/2001/REC-SVG-20010904/DTD/svg10.dtd">
<svg version="1.0" xmlns="http://www.w3.org/2000/svg"
 width="512.000000pt" height="512.000000pt" viewBox="0 0 512.000000 512.000000"
 preserveAspectRatio="xMidYMid meet">
<metadata>
Created by potrace 1.14, written by Peter Selinger 2001-2017
</metadata>
<g transform="translate(0.000000,512.000000) scale(0.100000,-0.100000)"
fill="#000000" stroke="none">
<path d="M1481 4657 c-69 -75 -264 -646 -245 -722 3 -14 18 -34 31 -45 42 -33
81 -26 169 32 115 75 225 131 339 173 168 61 181 98 85 239 -74 109 -181 246
-235 303 -35 37 -48 43 -82 43 -29 0 -46 -6 -62 -23z"/>
<path d="M3495 4637 c-54 -57 -161 -194 -235 -303 -96 -141 -83 -178 85 -240
119 -43 220 -94 335 -169 93 -61 130 -68 173 -35 13 11 28 31 31 45 19 75
-176 648 -246 722 -15 17 -33 23 -61 23 -34 0 -47 -6 -82 -43z"/>
<path d="M2490 3867 c-43 -28 -65 -65 -87 -147 -25 -91 -25 -481 1 -655 33
-231 80 -378 131 -411 25 -16 27 -16 53 3 49 36 96 187 128 408 26 174 26 564
1 655 -10 35 -26 78 -35 95 -25 43 -78 75 -122 75 -22 0 -51 -9 -70 -23z"/>
<path d="M1773 3251 c-102 -47 -132 -191 -57 -280 62 -74 233 -123 303 -87 82
43 75 176 -16 308 -49 72 -146 96 -230 59z"/>
<path d="M3183 3249 c-64 -32 -128 -140 -140 -237 -16 -134 111 -182 272 -103
74 36 110 75 126 133 40 151 -117 277 -258 207z"/>
<path d="M1145 2955 c2 -27 7 -81 10 -120 10 -102 51 -293 87 -393 95 -271
215 -424 486 -618 233 -167 324 -277 373 -446 l18 -63 0 317 c1 311 1 318 -24
396 -59 185 -217 335 -535 507 -153 82 -200 116 -280 202 -60 64 -119 166
-121 208 0 11 -5 29 -10 40 -6 14 -8 6 -4 -30z"/>
<path d="M3961 2950 c-16 -75 -54 -142 -122 -215 -79 -84 -127 -118 -279 -200
-304 -164 -466 -313 -532 -490 -22 -57 -23 -74 -25 -395 l-2 -335 18 63 c27
91 76 182 133 247 28 31 128 114 222 184 186 139 270 216 342 313 98 134 183
343 223 551 20 104 44 317 37 324 -2 3 -9 -19 -15 -47z"/>
<path d="M724 1856 c3 -52 9 -101 11 -108 6 -15 266 -152 306 -162 19 -4 49 6
110 35 l83 40 87 -41 c95 -45 121 -46 159 -5 24 26 29 79 11 113 -12 22 -220
132 -251 132 -9 0 -55 -18 -101 -39 l-83 -39 -169 85 -170 85 7 -96z"/>
<path d="M4229 1865 l-165 -83 -83 39 c-46 21 -92 39 -101 39 -31 0 -239 -110
-251 -132 -18 -34 -13 -87 11 -113 38 -41 64 -40 159 5 l87 41 83 -40 c60 -29
91 -39 110 -35 32 8 293 144 303 158 8 12 22 166 17 188 -3 13 -40 -2 -170
-67z"/>
<path d="M777 1493 c28 -136 29 -139 76 -158 116 -47 280 -105 295 -105 10 0
54 17 98 39 l80 38 74 -38 c89 -45 118 -48 159 -13 24 20 31 34 31 63 0 20 -7
47 -16 59 -20 29 -207 123 -246 124 -16 1 -65 -16 -108 -37 l-78 -38 -179 67
c-98 36 -183 66 -189 66 -8 0 -8 -19 3 -67z"/>
<path d="M4152 1493 l-174 -66 -78 38 c-43 21 -92 38 -108 37 -39 -1 -226 -95
-246 -124 -9 -12 -16 -39 -16 -59 0 -29 7 -43 31 -63 41 -35 70 -32 159 13
l74 38 80 -38 c44 -22 89 -39 100 -38 34 0 328 115 336 130 4 8 17 56 28 107
18 84 18 92 3 91 -9 0 -94 -30 -189 -66z"/>
<path d="M1349 1121 c-51 -52 -29 -124 48 -156 52 -22 130 -110 239 -268 197
-287 262 -360 360 -407 92 -43 285 -34 482 23 l82 24 83 -24 c197 -57 389 -66
482 -23 73 35 188 155 285 300 129 193 217 307 267 345 25 19 52 35 59 35 22
0 64 60 64 92 0 41 -48 88 -90 88 -53 0 -145 -57 -218 -135 -37 -40 -119 -148
-182 -241 -134 -197 -196 -273 -243 -303 -56 -34 -189 -29 -354 15 l-63 17 0
63 0 62 58 59 c36 36 71 84 92 127 39 79 40 78 -58 122 -109 49 -255 49 -364
0 -98 -44 -97 -43 -58 -122 21 -43 56 -91 92 -127 l58 -59 0 -62 0 -63 -62
-17 c-166 -44 -299 -49 -355 -15 -47 30 -109 106 -243 303 -136 201 -225 300
-308 344 -76 41 -114 41 -153 3z"/>
</g>
</svg>
